<svg id="Layer_1" data-name="Layer 1" xmlns="http://www.w3.org/2000/svg" viewBox="0 0 20 20"><title>r-add-car</title><path d="M14.6,17.44H5.35c0,.34,0,.66,0,1a.79.79,0,0,1-.84.86h-.1c-1.58,0-1.62,0-1.68-1.57a.57.57,0,0,0-.19-.42A4.08,4.08,0,0,1,.93,12.58c.13-.43.3-.85.47-1.3-.17,0-.34,0-.5-.09A1,1,0,0,1,0,10c.06-.68.28-.88,1-.83l1.2.12C2.7,8.1,3.2,7,3.66,5.8a2,2,0,0,1,2-1.33c1.17,0,2.33,0,3.49,0,.39,0,.57.09.6.5a4.11,4.11,0,0,0,.2.76l-.57,0c-1.2,0-2.39,0-3.59,0a.91.91,0,0,0-1,.63c-.39,1-.82,1.9-1.23,2.86,0,.12-.08.25-.13.41H16.4l-.62-1.52,1.14-.68c.2.48.43.94.6,1.43a.5.5,0,0,0,.66.38c.26-.05.52-.05.78-.1.44-.07.79,0,.94.49A1.11,1.11,0,0,1,19.5,11a3.75,3.75,0,0,1-.76.25,15.82,15.82,0,0,1,.5,2,4.08,4.08,0,0,1-1.78,4,.71.71,0,0,0-.22.51c0,1.45-.07,1.49-1.5,1.49-.93,0-1.14-.2-1.14-1.12ZM4.32,14.17a1.13,1.13,0,0,0,1.13-1.11,1.14,1.14,0,1,0-2.28,0A1.11,1.11,0,0,0,4.32,14.17Zm11.13,0A1.1,1.1,0,0,0,16.59,13a1.15,1.15,0,0,0-2.29,0A1.13,1.13,0,0,0,15.45,14.17Z"/><path d="M14.05,7.29A3.29,3.29,0,1,1,17.39,4,3.32,3.32,0,0,1,14.05,7.29Zm.37-3.65a3.25,3.25,0,0,0,0-.78c0-.18-.22-.32-.34-.48-.11.16-.29.31-.33.49a3.11,3.11,0,0,0,0,.76,3.54,3.54,0,0,0-.81,0c-.17,0-.3.22-.45.33.14.12.27.31.43.35a3.87,3.87,0,0,0,.84,0,4.81,4.81,0,0,0,0,.86c0,.15.22.26.33.39.12-.14.31-.26.34-.42a3.87,3.87,0,0,0,0-.84,4.51,4.51,0,0,0,.91,0A.56.56,0,0,0,15.65,4c0-.07-.2-.27-.33-.3A5.28,5.28,0,0,0,14.42,3.64Z"/></svg>