<svg id="Layer_1" data-name="Layer 1" xmlns="http://www.w3.org/2000/svg" viewBox="0 0 20 20"><title>r-checkmark-outline</title><path d="M3,3A9.6,9.6,0,0,1,10,.06,9.6,9.6,0,0,1,17,3,9.62,9.62,0,0,1,20,10a9.6,9.6,0,0,1-2.92,7A9.6,9.6,0,0,1,10,20a9.6,9.6,0,0,1-7-2.92A9.6,9.6,0,0,1,0,10,9.62,9.62,0,0,1,3,3Zm.58,13.5A8.78,8.78,0,0,0,10,19.16a8.78,8.78,0,0,0,6.46-2.68A8.8,8.8,0,0,0,19.14,10a8.82,8.82,0,0,0-2.68-6.47A8.82,8.82,0,0,0,10,.87,8.82,8.82,0,0,0,3.54,3.55,8.82,8.82,0,0,0,.86,10,8.8,8.8,0,0,0,3.54,16.48ZM14,6.23l.86.87L8.47,13.56a.59.59,0,0,1-.43.19.57.57,0,0,1-.43-.19L4.93,10.88,5.79,10,8,12.27Z"/></svg>