<svg id="Layer_1" data-name="Layer 1" xmlns="http://www.w3.org/2000/svg" viewBox="0 0 20 20"><title>r-circle-outline</title><path d="M3.09,3A9.34,9.34,0,0,1,10,.11,9.33,9.33,0,0,1,16.9,3a9.64,9.64,0,0,1,2.87,7,9.65,9.65,0,0,1-2.87,7A9.33,9.33,0,0,1,10,20a9.34,9.34,0,0,1-6.91-2.91A9.65,9.65,0,0,1,.22,10,9.64,9.64,0,0,1,3.09,3Zm.56,13.46A8.6,8.6,0,0,0,10,19.15a8.58,8.58,0,0,0,6.34-2.67A8.89,8.89,0,0,0,19,10a8.86,8.86,0,0,0-2.63-6.44A8.58,8.58,0,0,0,10,.92,8.6,8.6,0,0,0,3.65,3.59,8.86,8.86,0,0,0,1,10,8.89,8.89,0,0,0,3.65,16.48Z"/></svg>