<svg id="Layer_1" data-name="Layer 1" xmlns="http://www.w3.org/2000/svg" viewBox="0 0 20 3.63"><title>r-logo-text</title><path d="M5.13,3.39,4,2.18h.2a.8.8,0,0,1,.56.27L5.87,3.63H5.74A.86.86,0,0,1,5.13,3.39Z" style="fill:#3d5680"/><path d="M2.21,2.5H1.75c-.27,0-.39-.13-.59-.32H1.9Z" style="fill:#3d5680"/><path d="M19,2.18a1.05,1.05,0,0,1-.28.24.86.86,0,0,1-.36.08H16a.28.28,0,0,0-.2.08l-.71.73a1.19,1.19,0,0,1-.74.32H6.61a1.18,1.18,0,0,1-.8-.32L4.69,2.18h.18a.74.74,0,0,1,.52.21L6,3a.83.83,0,0,0,.49.25h7.93a.69.69,0,0,0,.49-.23l.66-.69a.72.72,0,0,1,.48-.18h3Z" style="fill:#3d5680"/><path d="M18.38,2.8l-.59.59a1.31,1.31,0,0,1-.7.24H15.28c0-.1.32-.32.66-.35h1.27a.76.76,0,0,0,.4-.2L17.69,3a.77.77,0,0,1,.54-.22Z" style="fill:#ec1e24"/><polygon points="19.28 1.93 19.18 2.02 0.99 2.02 0.89 1.93 19.28 1.93" style="fill:#3d5680"/><path d="M20,0V.9a.75.75,0,0,1-.23.55l-.08.07V1H18.55v.72h-.32V0h.32V.71h1.11V0Z" style="fill:#3d5680"/><path d="M4.62,1.75H3.48a.44.44,0,0,1-.15,0,.37.37,0,0,1-.14-.07.53.53,0,0,1-.11-.14A.46.46,0,0,1,3,1.3V.16a.13.13,0,0,1,0-.06l0,0a.1.1,0,0,1,0,0H4.62V.32H3.35v1a.17.17,0,0,0,0,.1.17.17,0,0,0,.1,0H4.62ZM4.48,1h-1V.71h1Z" style="fill:#3d5680"/><path d="M7.76,1.59a.14.14,0,0,1,0,.06.05.05,0,0,1,0,.05.09.09,0,0,1,0,0l-.06,0H6.36l-.1,0-.09-.05a.34.34,0,0,1-.08-.09A.39.39,0,0,1,6,1.45.68.68,0,0,1,6,1.3V.45s0-.07,0-.1l0-.1L6.11.16A.34.34,0,0,1,6.2.08.39.39,0,0,1,6.31,0l.15,0H7.74V.32H6.46a.13.13,0,0,0-.1,0,.13.13,0,0,0,0,.1V1.3a.17.17,0,0,0,0,.1.15.15,0,0,0,.1,0h1V1H6.6V.71h1l.06,0,0,0s0,0,0,.05a.14.14,0,0,1,0,.06Z" style="fill:#3d5680"/><path d="M12.14,1.75h.31V1.32h1.11v.43h.32V.87a.84.84,0,0,0-.07-.35.64.64,0,0,0-.18-.27.8.8,0,0,0-.27-.18A.84.84,0,0,0,13,0h-.78l-.05,0,0,.05a.13.13,0,0,0,0,.06ZM13.56,1H12.45V.32h.62l.11,0,.13.06a.47.47,0,0,1,.12.09.62.62,0,0,1,.1.16.69.69,0,0,1,0,.22Z" style="fill:#3d5680"/><path d="M16.84.1a.13.13,0,0,1,0,.09s0,0,0,.08l-1,1.16h1.07v.32H15.41a.11.11,0,0,1-.08,0,.13.13,0,0,1-.06-.07.1.1,0,0,1,0-.09.11.11,0,0,1,0-.08L16.34.32H15.27V0H16.7a.11.11,0,0,1,.08,0A.11.11,0,0,1,16.84.1Z" style="fill:#3d5680"/><path d="M10.73,1.75H9.55a.44.44,0,0,1-.43-.43V0h.32V1.43h1.29Z" style="fill:#3d5680"/><path d="M1.64.38V.5A.54.54,0,0,1,1.1,1H.45l.76.7H.78L.25,1.25A.72.72,0,0,1,0,.74H1.1a.2.2,0,0,0,.2-.2V.37a0,0,0,0,0,0,0H0V0H1.26A.38.38,0,0,1,1.64.38Z" style="fill:#ec1e24"/><path d="M4,2.5H3.36l-.31-.32h.4a.67.67,0,0,1,.48.2Z" style="fill:#3d5680"/><polygon points="3.14 2.5 2.45 2.5 2.14 2.18 2.83 2.18 3.14 2.5" style="fill:#3d5680"/><polygon points="19.28 1.93 19.18 2.02 0.99 2.02 0.89 1.93 19.28 1.93" style="fill:#3d5680"/><polygon points="19.28 1.93 19.18 2.02 0.99 2.02 0.89 1.93 19.28 1.93" style="fill:#3d5680"/><polygon points="19.28 1.93 19.18 2.02 0.99 2.02 0.89 1.93 19.28 1.93" style="fill:#3d5680"/><path d="M1.79,2.8l.58.59a1.31,1.31,0,0,0,.7.24H4.88c0-.1-.31-.32-.66-.35H3a.8.8,0,0,1-.4-.2L2.48,3a.79.79,0,0,0-.54-.22Z" style="fill:#3d5680"/></svg>