<svg id="Layer_1" data-name="Layer 1" xmlns="http://www.w3.org/2000/svg" viewBox="0 0 20 20"><title>r-logo-symbol</title><path d="M14.81,7.68a.87.87,0,0,1-.87.87H4.21L8.76,16a6.05,6.05,0,0,0,5.18,2.91h2.68l-3.18-5.21a6.08,6.08,0,0,0,6-3.45A6.08,6.08,0,0,0,14.81,7.68Z" style="fill:#3d5680;fill-rule:evenodd"/><path d="M13.94,6.82a.86.86,0,0,1,.61.25.85.85,0,0,1,.26.61,6.08,6.08,0,0,1,4.61,2.6A6.08,6.08,0,0,0,13.94,6.82Z" style="fill:#1d3351;fill-rule:evenodd"/><path d="M17.3,2.63H.61L0,1.62H13.94A6.06,6.06,0,0,1,17.3,2.63Z" style="fill:#ed2424;fill-rule:evenodd"/><path d="M19.42,10.28a6.07,6.07,0,0,0-5.48-3.46H6.56A6.09,6.09,0,0,1,1.46,4l-.57-1h17a6.45,6.45,0,0,1,1.18,1.36A6.07,6.07,0,0,1,19.42,10.28Z" style="fill:#ed2424;fill-rule:evenodd"/><path d="M18.1,3.28H1l-.4-.65H17.3A6.71,6.71,0,0,1,18.1,3.28Z" style="fill:#fff"/></svg>