<svg id="Layer_1" data-name="Layer 1" xmlns="http://www.w3.org/2000/svg" viewBox="0 0 20 20"><title>r-my-cars</title><path d="M20,12.56l-.42.55-.11.13c-.36.4-.36.4-.93.46a2.44,2.44,0,0,1-1.12,1.67,2.36,2.36,0,0,1-1.51.35,2.43,2.43,0,0,1-2.15-2H7.66a2.44,2.44,0,0,1-.77,1.42,2.34,2.34,0,0,1-1.82.6c-.05,0-.12-.06-.12-.1,0-.33,0-.66,0-1a1.36,1.36,0,0,0,1.2-.3,1.3,1.3,0,0,0,.43-.76A1.34,1.34,0,0,0,5.51,12a2,2,0,0,0,.29-1.32V9H8.12V6.14a4.08,4.08,0,0,1-.7,0,1.84,1.84,0,0,0-1.69.79l-.16.18L5,6.33a6.75,6.75,0,0,1,1.48-1,2.12,2.12,0,0,1,.75-.14h4a3.06,3.06,0,0,1,2,.77l2.9,2.44a.8.8,0,0,0,.24.13l2.77.88a1.19,1.19,0,0,1,.86.86s0,.05,0,.08ZM9.11,9h5.07a.36.36,0,0,0,.37-.24.35.35,0,0,0-.12-.43L12.2,6.5a1.52,1.52,0,0,0-1.06-.36c-.62,0-1.24,0-1.87,0H9.11Zm7.05,5.61a1.32,1.32,0,1,0-1.33-1.32A1.33,1.33,0,0,0,16.16,14.64Z"/><path d="M0,8.27c0-.16.05-.33.09-.49A1.33,1.33,0,0,1,1.37,6.62a18.12,18.12,0,0,1,2.33,0A1.34,1.34,0,0,1,5,7.81a4.57,4.57,0,0,1,.07.83c0,.77,0,1.54,0,2.31a.79.79,0,0,1-.84.92v.19c0,1.17,0,2.34,0,3.51a1,1,0,0,1-.68,1.09h-.3a1,1,0,0,1-.7-.69,1,1,0,0,1-.7.69h-.3a1,1,0,0,1-.68-1.11c0-1.16,0-2.32,0-3.48v-.21A.79.79,0,0,1,0,11.2Z"/><path d="M2.7,3.34a1.94,1.94,0,0,1,.77.36,1.42,1.42,0,0,1-.79,2.48,1.42,1.42,0,0,1-.36-2.81s.05,0,.08,0Z"/></svg>