<svg xmlns="http://www.w3.org/2000/svg" viewBox="0 0 363.76 626"><title>Asset 33</title><g id="Layer_2" data-name="Layer 2"><g id="Layer_1-2" data-name="Layer 1"><path d="M36.88,626c-6.75-3-14.07-5.26-20.12-9.34C4.82,608.6.46,596.19,0,582.2c0-1.17,0-2.34,0-3.5q0-266,0-532c0-12,2.6-23,10.85-32.29a43.15,43.15,0,0,1,19-12.29c2-.68,4-1.41,6-2.12h291C333.63,3.05,341,5.24,347,9.34c11.91,8.08,16.3,20.47,16.71,34.47.06,2,0,4,0,6q0,264.69,0,529.39c0,12.22-2.7,23.35-11.1,32.7-6.11,6.81-13.79,10.77-22.47,13.09-1.11.3-2.21.67-3.31,1ZM334.13,67.2H29.63V547.75h304.5ZM160.78,583.87A21.1,21.1,0,1,0,182,562.59,21.08,21.08,0,0,0,160.78,583.87Zm20.58-543q21.24,0,42.46,0c3.76,0,7.45-.51,7.56-5.19s-3.52-5.54-7.29-5.54q-42.21,0-84.41,0c-3.79,0-7.41.93-7.32,5.55s3.75,5.2,7.55,5.19C153.73,40.87,167.55,40.89,181.36,40.9Z"/></g></g></svg>