<svg id="Layer_1" data-name="Layer 1" xmlns="http://www.w3.org/2000/svg" viewBox="0 0 5.57 11.19"><title>Artboard 1</title><rect width="5.57" height="11.19" style="fill:#2e3192"/><rect x="0.63" y="0.76" width="4.3" height="2.46" style="fill:#239f40"/><rect x="0.63" y="1.58" width="4.3" height="0.82" style="fill:#fff"/><rect x="0.63" y="2.4" width="4.3" height="0.82" style="fill:#da0000"/><g id="b"><path id="p" d="M2.61,1.46h.23m-.23.08v0h.08v0h.07v0h0m.12,0h0v0h.08v0m0,0v0H3V1.46m0,0v.08m-.27,0h0" style="fill:none;stroke:#fff;stroke-linecap:square;stroke-width:0.024587495049531092px"/><path id="t" d="M2.61,1.58h.15m0,0H3" style="fill:none;stroke:#fff;stroke-linecap:square;stroke-width:0.024587495049531092px"/><path id="p-2" data-name="p" d="M2.61,2.45h.23m-.23.08v0h.08v0h.07v0h0m.12,0h0v0h.08v0m0,0v0H3V2.45m0,0v.08m-.27,0h0" style="fill:none;stroke:#fff;stroke-linecap:square;stroke-width:0.024587495049531092px"/><path id="t-2" data-name="t" d="M2.61,2.41h.15m0,0H3" style="fill:none;stroke:#fff;stroke-linecap:square;stroke-width:0.024587495049531092px"/></g><g id="b2"><g id="b-2" data-name="b"><path id="p-3" data-name="p" d="M3,1.46h.23M3,1.54v0h.08v0h.07v0h0m.11,0h0v0h.08v0m0,0v0h.08V1.46m0,0v.08M3,1.54H3" style="fill:none;stroke:#fff;stroke-linecap:square;stroke-width:0.024587495049531092px"/><path id="t-3" data-name="t" d="M3,1.58h.15m0,0h.16" style="fill:none;stroke:#fff;stroke-linecap:square;stroke-width:0.024587495049531092px"/><path id="p-4" data-name="p" d="M3,2.45h.23M3,2.53v0h.08v0h.07v0h0m.11,0h0v0h.08v0m0,0v0h.08V2.45m0,0v.08M3,2.53H3" style="fill:none;stroke:#fff;stroke-linecap:square;stroke-width:0.024587495049531092px"/><path id="t-4" data-name="t" d="M3,2.41h.15m0,0h.16" style="fill:none;stroke:#fff;stroke-linecap:square;stroke-width:0.024587495049531092px"/></g></g><g id="b4"><g id="b-3" data-name="b"><path id="p-5" data-name="p" d="M1.84,1.46h.23m-.23.08v0h.08v0H2v0H2m.11,0H2v0h.07v0m0,0v0h.08V1.46m0,0v.08m-.27,0h0" style="fill:none;stroke:#fff;stroke-linecap:square;stroke-width:0.024587495049531092px"/><path id="t-5" data-name="t" d="M1.84,1.58H2m0,0h.15" style="fill:none;stroke:#fff;stroke-linecap:square;stroke-width:0.024587495049531092px"/><path id="p-6" data-name="p" d="M1.84,2.45h.23m-.23.08v0h.08v0H2v0H2m.11,0H2v0h.07v0m0,0v0h.08V2.45m0,0v.08m-.27,0h0" style="fill:none;stroke:#fff;stroke-linecap:square;stroke-width:0.024587495049531092px"/><path id="t-6" data-name="t" d="M1.84,2.41H2m0,0h.15" style="fill:none;stroke:#fff;stroke-linecap:square;stroke-width:0.024587495049531092px"/></g><g id="b2-2" data-name="b2"><g id="b-4" data-name="b"><path id="p-7" data-name="p" d="M2.23,1.46h.23m-.23.08v0H2.3v0h.08v0h0m.12,0h0v0h.07v0m0,0v0h.08V1.46m0,0v.08m-.27,0h0" style="fill:none;stroke:#fff;stroke-linecap:square;stroke-width:0.024587495049531092px"/><path id="t-7" data-name="t" d="M2.23,1.58h.15m0,0h.15" style="fill:none;stroke:#fff;stroke-linecap:square;stroke-width:0.024587495049531092px"/><path id="p-8" data-name="p" d="M2.23,2.45h.23m-.23.08v0H2.3v0h.08v0h0m.12,0h0v0h.07v0m0,0v0h.08V2.45m0,0v.08m-.27,0h0" style="fill:none;stroke:#fff;stroke-linecap:square;stroke-width:0.024587495049531092px"/><path id="t-8" data-name="t" d="M2.23,2.41h.15m0,0h.15" style="fill:none;stroke:#fff;stroke-linecap:square;stroke-width:0.024587495049531092px"/></g></g></g><g id="b-5" data-name="b"><path id="p-9" data-name="p" d="M4.14,1.46h.23m-.23.08v0h.08v0h.07v0h0m.12,0h0v0h.08v0m0,0v0h.07V1.46m0,0v.08m-.27,0h0" style="fill:none;stroke:#fff;stroke-linecap:square;stroke-width:0.024587495049531092px"/><path id="t-9" data-name="t" d="M4.14,1.58h.15m0,0h.15" style="fill:none;stroke:#fff;stroke-linecap:square;stroke-width:0.024587495049531092px"/><path id="p-10" data-name="p" d="M4.14,2.45h.23m-.23.08v0h.08v0h.07v0h0m.12,0h0v0h.08v0m0,0v0h.07V2.45m0,0v.08m-.27,0h0" style="fill:none;stroke:#fff;stroke-linecap:square;stroke-width:0.024587495049531092px"/><path id="t-10" data-name="t" d="M4.14,2.41h.15m0,0h.15" style="fill:none;stroke:#fff;stroke-linecap:square;stroke-width:0.024587495049531092px"/></g><g id="b2-3" data-name="b2"><g id="b-6" data-name="b"><path id="p-11" data-name="p" d="M4.52,1.46h.23m-.23.08v0H4.6v0h.07v0h0m.11,0h0v0h.08v0m0,0v0h.08V1.46m0,0v.08m-.27,0h0" style="fill:none;stroke:#fff;stroke-linecap:square;stroke-width:0.024587495049531092px"/><path id="t-11" data-name="t" d="M4.52,1.58h.15m0,0h.16" style="fill:none;stroke:#fff;stroke-linecap:square;stroke-width:0.024587495049531092px"/><path id="p-12" data-name="p" d="M4.52,2.45h.23m-.23.08v0H4.6v0h.07v0h0m.11,0h0v0h.08v0m0,0v0h.08V2.45m0,0v.08m-.27,0h0" style="fill:none;stroke:#fff;stroke-linecap:square;stroke-width:0.024587495049531092px"/><path id="t-12" data-name="t" d="M4.52,2.41h.15m0,0h.16" style="fill:none;stroke:#fff;stroke-linecap:square;stroke-width:0.024587495049531092px"/></g></g><g id="b4-2" data-name="b4"><g id="b-7" data-name="b"><path id="p-13" data-name="p" d="M3.37,1.46H3.6m-.23.08v0h.08v0h.08v0h0m.11,0h0v0h.07v0m0,0v0h.08V1.46m0,0v.08m-.27,0h0" style="fill:none;stroke:#fff;stroke-linecap:square;stroke-width:0.024587495049531092px"/><path id="t-13" data-name="t" d="M3.37,1.58h.16m0,0h.15" style="fill:none;stroke:#fff;stroke-linecap:square;stroke-width:0.024587495049531092px"/><path id="p-14" data-name="p" d="M3.37,2.45H3.6m-.23.08v0h.08v0h.08v0h0m.11,0h0v0h.07v0m0,0v0h.08V2.45m0,0v.08m-.27,0h0" style="fill:none;stroke:#fff;stroke-linecap:square;stroke-width:0.024587495049531092px"/><path id="t-14" data-name="t" d="M3.37,2.41h.16m0,0h.15" style="fill:none;stroke:#fff;stroke-linecap:square;stroke-width:0.024587495049531092px"/></g><g id="b2-4" data-name="b2"><g id="b-8" data-name="b"><path id="p-15" data-name="p" d="M3.76,1.46H4m-.23.08v0h.07v0h.08v0h0m.12,0H4v0H4v0m0,0v0H4.1V1.46m0,0v.08m-.27,0h0" style="fill:none;stroke:#fff;stroke-linecap:square;stroke-width:0.024587495049531092px"/><path id="t-15" data-name="t" d="M3.76,1.58h.15m0,0H4.1" style="fill:none;stroke:#fff;stroke-linecap:square;stroke-width:0.024587495049531092px"/><path id="p-16" data-name="p" d="M3.76,2.45H4m-.23.08v0h.07v0h.08v0h0m.12,0H4v0H4v0m0,0v0H4.1V2.45m0,0v.08m-.27,0h0" style="fill:none;stroke:#fff;stroke-linecap:square;stroke-width:0.024587495049531092px"/><path id="t-16" data-name="t" d="M3.76,2.41h.15m0,0H4.1" style="fill:none;stroke:#fff;stroke-linecap:square;stroke-width:0.024587495049531092px"/></g></g></g><g id="b-9" data-name="b"><path id="p-17" data-name="p" d="M1.46,1.46h.23m-.23.08v0h.08v0h.07v0h0m.11,0h0v0h.08v0m0,0v0h.08V1.46m0,0v.08m-.27,0h0" style="fill:none;stroke:#fff;stroke-linecap:square;stroke-width:0.024587495049531092px"/><path id="t-17" data-name="t" d="M1.46,1.58h.15m0,0h.16" style="fill:none;stroke:#fff;stroke-linecap:square;stroke-width:0.024587495049531092px"/><path id="p-18" data-name="p" d="M1.46,2.45h.23m-.23.08v0h.08v0h.07v0h0m.11,0h0v0h.08v0m0,0v0h.08V2.45m0,0v.08m-.27,0h0" style="fill:none;stroke:#fff;stroke-linecap:square;stroke-width:0.024587495049531092px"/><path id="t-18" data-name="t" d="M1.46,2.41h.15m0,0h.16" style="fill:none;stroke:#fff;stroke-linecap:square;stroke-width:0.024587495049531092px"/></g><g id="b-10" data-name="b"><path id="p-19" data-name="p" d="M.7,1.46H.93M.7,1.54v0H.77v0H.85v0h0m.12,0h0v0H1v0m0,0v0H1V1.46m0,0v.08m-.26,0h0" style="fill:none;stroke:#fff;stroke-linecap:square;stroke-width:0.024587495049531092px"/><path id="t-19" data-name="t" d="M.7,1.58H.85m0,0H1" style="fill:none;stroke:#fff;stroke-linecap:square;stroke-width:0.024587495049531092px"/><path id="p-20" data-name="p" d="M.7,2.45H.93M.7,2.53v0H.77v0H.85v0h0m.12,0h0v0H1v0m0,0v0H1V2.45m0,0v.08m-.26,0h0" style="fill:none;stroke:#fff;stroke-linecap:square;stroke-width:0.024587495049531092px"/><path id="t-20" data-name="t" d="M.7,2.41H.85m0,0H1" style="fill:none;stroke:#fff;stroke-linecap:square;stroke-width:0.024587495049531092px"/></g><g id="b2-5" data-name="b2"><g id="b-11" data-name="b"><path id="p-21" data-name="p" d="M1.08,1.46h.23m-.23.08v0h.08v0h.07v0h0m.12,0h0v0h.08v0m0,0v0h.07V1.46m0,0v.08m-.27,0h0" style="fill:none;stroke:#fff;stroke-linecap:square;stroke-width:0.024587495049531092px"/><path id="t-21" data-name="t" d="M1.08,1.58h.15m0,0h.15" style="fill:none;stroke:#fff;stroke-linecap:square;stroke-width:0.024587495049531092px"/><path id="p-22" data-name="p" d="M1.08,2.45h.23m-.23.08v0h.08v0h.07v0h0m.12,0h0v0h.08v0m0,0v0h.07V2.45m0,0v.08m-.27,0h0" style="fill:none;stroke:#fff;stroke-linecap:square;stroke-width:0.024587495049531092px"/><path id="t-22" data-name="t" d="M1.08,2.41h.15m0,0h.15" style="fill:none;stroke:#fff;stroke-linecap:square;stroke-width:0.024587495049531092px"/></g></g><path d="M2.91,1.77A.32.32,0,0,1,3,2.2.24.24,0,0,0,2.91,1.77Z" style="fill:#da0000"/><path d="M2.78,1.75a0,0,0,0,1-.07,0,0,0,0,0,0,.07,0s0,.05.08,0,0,.08-.08,0Z" style="fill:#da0000"/><path d="M2.78,2.29l0,0a.23.23,0,0,1-.14,0,.2.2,0,0,0,.11,0A.27.27,0,0,1,2.59,2a.26.26,0,0,1,.09-.21.31.31,0,0,0,.07.41v-.4s0,0,0,0,0,0,0,0v.4a.31.31,0,0,0,.07-.41A.23.23,0,0,1,3,2a.27.27,0,0,1-.14.24.22.22,0,0,0,.12,0,.23.23,0,0,1-.14,0l0,0Z" style="fill:#da0000"/><path d="M2.66,1.77a.31.31,0,0,0-.06.43A.23.23,0,0,1,2.66,1.77Z" style="fill:#da0000"/><path d="M.73,8V6.68H1V8Z" style="fill:#fff"/><path d="M1.23,8V7.72h.25V8Z" style="fill:#fff"/><path d="M1.74,8V6.68h.54a.74.74,0,0,1,.3,0,.23.23,0,0,1,.15.12.36.36,0,0,1,.06.2.36.36,0,0,1-.08.24.38.38,0,0,1-.26.12l.14.11a1.16,1.16,0,0,1,.15.21L2.9,8H2.58L2.4,7.69,2.26,7.5l-.08,0-.13,0H2V8ZM2,7.23h.19a.92.92,0,0,0,.23,0l.08,0a.3.3,0,0,0,0-.1.15.15,0,0,0,0-.1.12.12,0,0,0-.1,0H2Z" style="fill:#fff"/><path d="M3,8V7.72h.25V8Z" style="fill:#fff"/><path d="M.73,10V8.7H1V10Z" style="fill:#fff"/><path d="M1.24,10V8.7h.54a1.05,1.05,0,0,1,.3,0,.26.26,0,0,1,.15.12.37.37,0,0,1,.06.21.41.41,0,0,1-.08.24A.49.49,0,0,1,2,9.42a.5.5,0,0,1,.14.1,1.16,1.16,0,0,1,.15.21L2.4,10H2.08L1.9,9.7l-.14-.19-.08,0H1.5V10Zm.26-.74h.19a.59.59,0,0,0,.23,0A.14.14,0,0,0,2,9.17a.3.3,0,0,0,0-.1A.17.17,0,0,0,2,9a.16.16,0,0,0-.1-.05H1.5Z" style="fill:#fff"/><path d="M3.7,10H3.41L3.3,9.69H2.79L2.68,10H2.41l.5-1.28h.27Zm-.48-.51L3,9l-.17.47Z" style="fill:#fff"/><path d="M3.84,10V8.7h.25l.53.86V8.7h.24V10H4.6l-.52-.84V10Z" style="fill:#fff"/></svg>